<?xml version="1.0" encoding="UTF-8"?>
<svg xmlns="http://www.w3.org/2000/svg" width="260" height="50" viewBox="0 0 260 50" fill="none">
  <g clip-path="url(#clip0_285_1052)">
    <path d="M172.684 9.69541H182.361V19.3908H172.684V9.69541ZM163.007 9.69541H172.684V0H163.007V9.69541ZM95.3767 42.0206C88.3974 42.0206 86.599 35.0922 86.3849 32.0249L113.767 32.0892C113.767 32.0892 114.281 28.6143 113.381 22.6941C112.354 15.9588 106.445 8.53711 95.3767 8.53711C80.8829 8.53711 76.5797 20.8709 76.5797 28.5929C76.5797 37.4946 80.7116 50 95.3553 50C110.47 50 113.638 38.1167 113.638 36.5508L104.154 36.5723C104.154 36.5723 102.677 42.0206 95.3767 42.0206ZM104.154 25.6328L86.4064 25.5899C86.4064 24.9678 86.6204 16.5594 95.3981 16.5594C104.176 16.5594 104.154 25.0965 104.154 25.6328ZM35.7102 48.6486V25.6328C35.7102 10.725 28.003 8.62291 18.9471 8.53711C9.71986 8.47276 2.05549 12.0549 2.05549 21.3642L11.3683 21.3857C11.3683 19.0047 13.4664 15.9374 18.8186 15.9374C25.6695 15.9374 26.2689 20.5277 26.2689 24.9249C26.2689 24.9249 25.1985 24.882 24.4277 24.882C12.8884 24.882 1.30618 26.0618 0.0858782 36.3149C-0.963155 45.2381 5.99472 49.4423 13.081 49.4423C20.1674 49.4423 23.7212 46.5465 26.2475 43.3076V48.6486H35.7102ZM26.2689 34.0197C26.2689 41.8919 18.0479 42.5568 16.742 42.5568C15.436 42.5568 9.8269 42.3209 9.8269 37.4732C9.8269 30.4376 20.617 30.5663 26.2689 30.5663V34.0197ZM128.796 48.6486V29.1077C128.796 25.5041 129.567 22.973 130.937 20.9138C132.2 19.0262 134.576 16.5809 138.537 16.5809C143.268 16.5809 144.703 20.2274 145.473 22.2008C146.158 24.1527 146.18 26.3621 146.18 29.5796V48.6486H155.985C155.985 48.6486 155.964 32.7542 155.985 25.118C155.985 22.3938 155.75 19.5839 154.722 17.0528C153.116 13.0845 148.856 8.36551 141.406 8.55856C134.812 8.73016 130.166 12.8915 128.796 15.5084C128.796 13.4921 128.817 9.71686 128.817 9.71686H119.162V48.6701L128.796 48.6486ZM56.7551 48.6486H61.5935L76.2586 9.69541H66.0037C66.0037 9.69541 59.9236 28.6358 56.8836 38.0952H56.6266C53.5866 28.6358 47.5279 9.69541 47.5279 9.69541H37.273L51.9381 48.6486H56.7551ZM223.273 48.6486H228.112L242.777 9.69541H232.522C232.522 9.69541 226.442 28.6358 223.402 38.1167H223.145L214.046 9.69541H203.791L218.456 48.6486H223.273ZM163.007 19.3908L162.986 37.0442C162.964 38.6315 163.071 40.2188 163.307 41.7846C163.714 44.1227 164.913 47.5761 169.366 49.0991C173.262 50.429 181.29 49.9571 181.29 49.5924L181.312 41.0553C181.312 41.0553 177.844 41.1411 175.96 40.6907C174.204 40.3475 173.155 39.1677 172.855 37.3874C172.705 36.5937 172.641 35.7786 172.641 34.985C172.641 29.9013 172.684 19.3694 172.684 19.3694H163.007V19.3908ZM198.503 9.69541H188.783V48.6486H198.503V9.69541Z" fill="#A9DF82"></path>
    <path d="M250.726 21.0892H251.768C252.282 21.0892 252.693 20.9572 253.002 20.6931C253.317 20.4226 253.475 20.0812 253.475 19.669C253.475 19.1859 253.336 18.8413 253.06 18.6352C252.783 18.4227 252.346 18.3164 251.748 18.3164H250.726V21.0892ZM254.911 19.6303C254.911 20.1456 254.773 20.6029 254.497 21.0023C254.227 21.3952 253.844 21.6882 253.349 21.8815L255.644 25.6978H254.024L252.028 22.2776H250.726V25.6978H249.299V17.0894H251.816C252.883 17.0894 253.664 17.2987 254.159 17.7174C254.661 18.136 254.911 18.7737 254.911 19.6303ZM244.719 21.3887C244.719 20.1005 245.04 18.8929 245.683 17.7657C246.326 16.6385 247.21 15.7496 248.335 15.0991C249.46 14.4486 250.672 14.1233 251.97 14.1233C253.256 14.1233 254.461 14.4453 255.586 15.0894C256.711 15.7335 257.599 16.6192 258.248 17.7464C258.897 18.8735 259.222 20.0877 259.222 21.3887C259.222 22.6576 258.91 23.8492 258.286 24.9635C257.663 26.0778 256.789 26.9699 255.664 27.6397C254.539 28.3096 253.307 28.6445 251.97 28.6445C250.64 28.6445 249.412 28.3128 248.287 27.6494C247.162 26.9795 246.284 26.0874 245.654 24.9732C245.031 23.8589 244.719 22.6641 244.719 21.3887ZM245.731 21.3887C245.731 22.503 246.011 23.5465 246.57 24.5191C247.129 25.4852 247.891 26.2485 248.856 26.8088C249.826 27.3628 250.865 27.6397 251.97 27.6397C253.089 27.6397 254.127 27.3595 255.085 26.7992C256.043 26.2388 256.801 25.482 257.361 24.5287C257.926 23.569 258.209 22.5224 258.209 21.3887C258.209 20.268 257.93 19.2278 257.37 18.2681C256.811 17.3084 256.052 16.5483 255.095 15.988C254.143 15.4212 253.102 15.1377 251.97 15.1377C250.852 15.1377 249.813 15.4179 248.856 15.9783C247.898 16.5387 247.136 17.2987 246.57 18.2584C246.011 19.2117 245.731 20.2551 245.731 21.3887Z" fill="#A9DF82"></path>
  </g>
  <defs>
    <clipPath id="clip0_285_1052">
      <rect width="260" height="50" fill="white"></rect>
    </clipPath>
  </defs>
</svg>
